<?xml version="1.0" standalone="no"?>
<!DOCTYPE svg PUBLIC "-//W3C//DTD SVG 20010904//EN"
 "http://www.w3.org/TR/2001/REC-SVG-20010904/DTD/svg10.dtd">
<svg version="1.0" xmlns="http://www.w3.org/2000/svg"
 width="256.000000pt" height="256.000000pt" viewBox="0 0 256.000000 256.000000"
 preserveAspectRatio="xMidYMid meet">

<g transform="translate(0.000000,256.000000) scale(0.100000,-0.100000)"
fill="#000000" stroke="none">
<path d="M1073 1889 c-26 -26 31 -162 109 -260 27 -33 46 -64 43 -67 -4 -4
-15 4 -24 18 -29 44 -105 121 -135 137 -46 24 -146 54 -156 48 -6 -4 -10 -12
-10 -19 0 -22 100 -164 140 -199 22 -18 37 -37 33 -40 -3 -4 -35 -7 -70 -7
-57 0 -63 2 -63 20 0 53 -70 130 -159 175 -56 28 -89 32 -97 11 -6 -16 36
-105 72 -152 31 -40 30 -44 -8 -44 -28 0 -38 7 -63 45 -31 46 -101 101 -143
112 -13 3 -51 2 -85 -3 -57 -8 -62 -11 -65 -35 -2 -21 8 -36 48 -72 28 -25 67
-52 86 -59 19 -6 34 -15 34 -19 0 -13 -50 -20 -70 -9 -10 5 -60 10 -111 10
-83 0 -96 -3 -143 -30 -29 -16 -61 -39 -71 -50 -17 -19 -17 -21 0 -40 19 -21
73 -40 118 -40 60 0 13 -45 -56 -54 -27 -3 -69 -15 -93 -26 -36 -15 -49 -28
-65 -65 -13 -28 -19 -61 -17 -88 3 -39 5 -42 35 -45 18 -2 41 2 53 8 26 14 26
2 0 -55 -27 -60 -35 -150 -21 -227 23 -117 53 -132 96 -48 36 71 40 115 17
185 -31 94 -32 106 -8 169 l22 59 13 -56 c19 -87 67 -132 100 -93 15 18 39 98
51 172 8 48 7 72 -5 110 -8 27 -15 50 -15 51 0 3 84 63 89 63 4 0 5 -30 3 -67
-4 -84 15 -148 43 -148 31 0 106 150 112 225 5 55 7 58 36 64 54 11 56 9 35
-34 -17 -33 -19 -51 -13 -114 5 -56 11 -76 24 -81 10 -4 20 0 26 11 6 9 20 30
32 48 35 48 73 128 73 154 0 17 5 22 18 20 9 -2 15 -11 13 -19 -9 -30 -13
-140 -7 -173 8 -43 30 -52 66 -26 48 34 70 80 70 147 l0 60 42 6 c24 3 44 4
46 2 2 -2 -6 -21 -17 -43 -19 -37 -41 -138 -41 -189 0 -38 40 -28 96 25 66 61
107 140 109 210 2 66 25 96 52 70 10 -11 17 -37 18 -71 4 -71 41 -143 107
-207 58 -55 98 -66 98 -27 0 51 -22 152 -41 189 -11 22 -19 41 -17 43 2 2 22
1 46 -2 l42 -6 0 -60 c0 -67 22 -113 70 -147 36 -26 58 -17 66 27 6 32 1 137
-7 172 -2 8 4 17 14 19 12 2 17 -3 17 -20 0 -26 38 -106 73 -154 12 -18 27
-40 33 -50 6 -10 17 -15 26 -12 11 5 17 27 23 83 6 64 4 82 -13 115 -21 43
-19 45 35 34 29 -6 31 -9 36 -63 6 -74 82 -226 112 -226 28 0 47 64 43 148 -2
37 -1 67 3 67 5 0 89 -60 89 -63 0 -1 -7 -23 -14 -49 -11 -34 -12 -63 -6 -105
11 -77 28 -143 46 -170 33 -52 84 -10 105 84 l13 56 22 -59 c24 -63 23 -75 -8
-169 -23 -70 -19 -114 17 -185 43 -84 73 -69 96 48 15 79 7 165 -20 225 -27
59 -27 71 -1 57 12 -6 35 -10 53 -8 30 3 32 6 35 45 2 27 -4 60 -17 88 -16 37
-29 50 -65 65 -24 11 -66 23 -93 26 -69 9 -116 54 -55 54 70 0 139 39 127 72
-3 8 -34 31 -69 51 -60 35 -67 37 -155 37 -51 0 -101 -5 -111 -10 -20 -11 -70
-4 -70 9 0 4 15 13 34 19 19 7 58 34 86 59 40 36 50 51 48 72 -3 24 -8 27 -70
35 -57 8 -74 6 -107 -9 -45 -20 -87 -58 -122 -110 -19 -28 -31 -35 -56 -35
-39 0 -40 2 -9 43 36 49 78 137 72 153 -9 23 -45 16 -110 -20 -88 -49 -146
-115 -146 -165 0 -19 -6 -21 -63 -21 -35 0 -67 3 -70 7 -4 3 11 22 33 40 22
19 62 69 90 111 74 112 68 124 -42 90 -62 -20 -82 -32 -134 -83 -33 -33 -67
-71 -76 -85 -9 -14 -19 -22 -23 -18 -3 3 16 34 43 67 84 104 137 236 105 263
-12 10 -18 9 -29 -7 -8 -10 -14 -25 -14 -33 0 -52 -126 -242 -160 -242 -16 0
-76 65 -106 116 -13 23 -34 70 -47 104 -23 65 -35 78 -54 59z m-40 -210 c49
-25 147 -139 119 -139 -23 0 -104 64 -131 104 -32 46 -29 56 12 35z m506 -35
c-27 -40 -108 -104 -131 -104 -15 0 20 54 59 91 76 72 118 80 72 13z m-728
-27 c33 -22 83 -86 75 -95 -11 -10 -75 41 -100 78 -30 46 -24 50 25 17z m963
-17 c-25 -37 -89 -88 -100 -78 -8 9 42 73 75 95 49 33 55 29 25 -17z m-1221 9
c28 -14 87 -70 87 -82 0 -21 -122 25 -163 61 -13 12 -15 17 -5 24 18 11 56 10
81 -3z m1535 3 c10 -7 8 -12 -5 -24 -41 -36 -163 -82 -163 -61 0 11 58 66 85
81 24 13 65 15 83 4z m-898 -177 c0 -33 -31 -94 -64 -124 -20 -19 -26 -21 -26
-9 0 44 58 158 81 158 5 0 9 -11 9 -25z m212 8 c24 -28 46 -75 53 -118 l8 -40
-28 25 c-31 29 -55 71 -66 118 -8 37 8 44 33 15z m-608 -25 c-11 -39 -34 -78
-44 -78 -16 0 -11 33 10 68 23 37 45 43 34 10z m149 -96 l-18 -27 -3 48 c-2
35 2 57 15 75 l18 27 3 -48 c2 -35 -2 -57 -15 -75z m697 24 l-1 -51 -19 24
c-14 17 -20 38 -20 75 l1 51 19 -24 c14 -17 20 -38 20 -75z m160 62 c21 -35
26 -68 10 -68 -10 0 -33 39 -44 78 -11 33 11 27 34 -10z m-1414 -4 c-72 -31
-118 -40 -141 -27 -15 9 -13 13 17 31 26 17 48 22 108 21 l75 0 -59 -25z
m1911 5 c31 -19 33 -23 18 -32 -23 -13 -69 -4 -141 27 l-59 25 74 1 c58 0 81
-4 108 -21z m-1707 -6 c0 -32 -19 -87 -41 -118 l-20 -30 3 62 c3 42 10 69 23
83 22 25 35 26 35 3z m1415 -3 c13 -14 20 -41 23 -83 l3 -62 -20 30 c-32 46
-53 135 -33 135 5 0 17 -9 27 -20z m246 -225 c8 -39 8 -60 -1 -95 l-13 -45
-14 34 c-17 40 -29 161 -19 188 7 16 9 16 21 -7 8 -14 19 -48 26 -75z m-1891
27 c0 -32 -7 -83 -16 -112 -14 -48 -17 -52 -27 -35 -26 45 0 205 32 205 7 0
11 -24 11 -58z m-140 1 c0 -27 -87 -113 -113 -113 -14 0 1 61 21 83 26 29 92
50 92 30z m2207 -26 c12 -12 26 -37 29 -56 6 -30 5 -34 -10 -28 -40 16 -106
85 -106 112 0 15 66 -6 87 -28z m-2241 -289 c9 -30 8 -103 -2 -120 -11 -18
-22 23 -23 90 -1 53 12 69 25 30z m2213 -30 c-1 -67 -12 -108 -23 -90 -10 17
-11 90 -2 120 13 39 26 23 25 -30z"/>
<path d="M564 1749 c-10 -17 23 -46 37 -32 7 7 9 19 6 27 -7 18 -33 21 -43 5z"/>
<path d="M1953 1744 c-3 -8 -1 -20 6 -27 14 -14 47 15 37 32 -10 16 -36 13
-43 -5z"/>
<path d="M87 1333 c-15 -14 -7 -43 12 -43 23 0 34 23 18 39 -13 13 -21 14 -30
4z"/>
<path d="M2443 1329 c-16 -16 -5 -39 19 -39 14 0 19 6 16 22 -4 25 -19 33 -35
17z"/>
<path d="M950 1170 c0 -23 26 -38 41 -23 14 14 0 43 -22 43 -12 0 -19 -7 -19
-20z"/>
<path d="M1566 1173 c-4 -9 -2 -21 3 -26 15 -15 41 0 41 23 0 25 -35 28 -44 3z"/>
<path d="M604 1165 c-8 -20 4 -35 27 -35 14 0 19 7 19 25 0 18 -5 25 -20 25
-11 0 -23 -7 -26 -15z"/>
<path d="M1910 1155 c0 -22 4 -26 23 -23 14 2 22 10 22 23 0 13 -8 21 -22 23
-19 3 -23 -1 -23 -23z"/>
<path d="M57 963 c-15 -14 -7 -43 12 -43 26 0 36 17 21 35 -14 16 -23 19 -33
8z"/>
<path d="M2471 956 c-16 -19 -6 -36 20 -36 15 0 20 6 17 22 -4 27 -21 33 -37
14z"/>
</g>
</svg>
